{
  "accessors": [
    {
      "bufferView": 2,
      "componentType": 5126,
      "count": 65532,
      "max": [
        0.24396200478076935,
        0.048562001436948776,
        -0.18521299958229065
      ],
      "min": [
        0.10723800212144852,
        -0.05865800008177757,
        -0.43202701210975647
      ],
      "type": "VEC3"
    },
    {
      "bufferView": 2,
      "byteOffset": 786384,
      "componentType": 5126,
      "count": 65532,
      "max": [
        0.9999988079071045,
        1.0,
        0.9996359348297119
      ],
      "min": [
        -0.9999865293502808,
        -1.0,
        -0.9948610663414001
      ],
      "type": "VEC3"
    },
    {
      "bufferView": 3,
      "componentType": 5126,
      "count": 65532,
      "max": [
        0.999999463558197,
        0.9999998807907104,
        0.9999998807907104,
        1.0
      ],
      "min": [
        -0.9999996423721313,
        -0.9999999403953552,
        -0.9999996423721313,
        -1.0
      ],
      "type": "VEC4"
    },
    {
      "bufferView": 1,
      "componentType": 5126,
      "count": 65532,
      "max": [
        0.999567985534668,
        0.9995669722557068
      ],
      "min": [
        0.00043200000072829425,
        0.0004330277442932129
      ],
      "type": "VEC2"
    },
    {
      "bufferView": 1,
      "byteOffset": 524256,
      "componentType": 5126,
      "count": 65532,
      "max": [
        0.999567985534668,
        0.9995669722557068
      ],
      "min": [
        0.00043200000072829425,
        0.0004330277442932129
      ],
      "type": "VEC2"
    },
    {
      "bufferView": 1,
      "byteOffset": 1048512,
      "componentType": 5126,
      "count": 65532,
      "max": [
        0.999567985534668,
        0.9995669722557068
      ],
      "min": [
        0.00043200000072829425,
        0.0004330277442932129
      ],
      "type": "VEC2"
    },
    {
      "bufferView": 1,
      "byteOffset": 1572768,
      "componentType": 5126,
      "count": 65532,
      "max": [
        0.999567985534668,
        0.9995669722557068
      ],
      "min": [
        0.00043200000072829425,
        0.0004330277442932129
      ],
      "type": "VEC2"
    },
    {
      "bufferView": 0,
      "componentType": 5125,
      "count": 339051,
      "type": "SCALAR"
    },
    {
      "bufferView": 2,
      "byteOffset": 1572768,
      "componentType": 5126,
      "count": 65532,
      "max": [
        0.2111539989709854,
        0.08117000013589859,
        -3.000000106112566e-06
      ],
      "min": [
        -0.10553699731826782,
        -0.08026699721813202,
        -0.5919560194015503
      ],
      "type": "VEC3"
    },
    {
      "bufferView": 2,
      "byteOffset": 2359152,
      "componentType": 5126,
      "count": 65532,
      "max": [
        1.0,
        1.0,
        1.0
      ],
      "min": [
        -1.0,
        -1.0,
        -1.0
      ],
      "type": "VEC3"
    },
    {
      "bufferView": 3,
      "byteOffset": 1048512,
      "componentType": 5126,
      "count": 65532,
      "max": [
        1.0,
        1.0,
        1.0,
        1.0
      ],
      "min": [
        -1.0,
        -1.0,
        -1.0,
        -1.0
      ],
      "type": "VEC4"
    },
    {
      "bufferView": 1,
      "byteOffset": 2097024,
      "componentType": 5126,
      "count": 65532,
      "max": [
        0.999567985534668,
        0.9995669722557068
      ],
      "min": [
        0.00043200000072829425,
        0.0004330277442932129
      ],
      "type": "VEC2"
    },
    {
      "bufferView": 1,
      "byteOffset": 2621280,
      "componentType": 5126,
      "count": 65532,
      "max": [
        0.999567985534668,
        0.9995669722557068
      ],
      "min": [
        0.00043200000072829425,
        0.0004330277442932129
      ],
      "type": "VEC2"
    },
    {
      "bufferView": 1,
      "byteOffset": 3145536,
      "componentType": 5126,
      "count": 65532,
      "max": [
        0.999567985534668,
        0.9995669722557068
      ],
      "min": [
        0.00043200000072829425,
        0.0004330277442932129
      ],
      "type": "VEC2"
    },
    {
      "bufferView": 1,
      "byteOffset": 3669792,
      "componentType": 5126,
      "count": 65532,
      "max": [
        0.999567985534668,
        0.9995669722557068
      ],
      "min": [
        0.00043200000072829425,
        0.0004330277442932129
      ],
      "type": "VEC2"
    },
    {
      "bufferView": 0,
      "byteOffset": 1356204,
      "componentType": 5125,
      "count": 353730,
      "type": "SCALAR"
    },
    {
      "bufferView": 2,
      "byteOffset": 3145536,
      "componentType": 5126,
      "count": 65532,
      "max": [
        0.11504799872636795,
        0.0648069977760315,
        0.0
      ],
      "min": [
        -0.24287299811840057,
        -0.08028499782085419,
        -0.5919489860534668
      ],
      "type": "VEC3"
    },
    {
      "bufferView": 2,
      "byteOffset": 3931920,
      "componentType": 5126,
      "count": 65532,
      "max": [
        1.0,
        1.0,
        1.0
      ],
      "min": [
        -1.0,
        -1.0,
        -1.0
      ],
      "type": "VEC3"
    },
    {
      "bufferView": 3,
      "byteOffset": 2097024,
      "componentType": 5126,
      "count": 65532,
      "max": [
        1.0,
        1.0,
        1.0,
        1.0
      ],
      "min": [
        -1.0,
        -1.0,
        -1.0,
        -1.0
      ],
      "type": "VEC4"
    },
    {
      "bufferView": 1,
      "byteOffset": 4194048,
      "componentType": 5126,
      "count": 65532,
      "max": [
        0.999567985534668,
        0.9995669722557068
      ],
      "min": [
        0.00043200000072829425,
        0.0004330277442932129
      ],
      "type": "VEC2"
    },
    {
      "bufferView": 1,
      "byteOffset": 4718304,
      "componentType": 5126,
      "count": 65532,
      "max": [
        0.999567985534668,
        0.9995669722557068
      ],
      "min": [
        0.00043200000072829425,
        0.0004330277442932129
      ],
      "type": "VEC2"
    },
    {
      "bufferView": 1,
      "byteOffset": 5242560,
      "componentType": 5126,
      "count": 65532,
      "max": [
        0.999567985534668,
        0.9995669722557068
      ],
      "min": [
        0.00043200000072829425,
        0.0004330277442932129
      ],
      "type": "VEC2"
    },
    {
      "bufferView": 1,
      "byteOffset": 5766816,
      "componentType": 5126,
      "count": 65532,
      "max": [
        0.999567985534668,
        0.9995669722557068
      ],
      "min": [
        0.00043200000072829425,
        0.0004330277442932129
      ],
      "type": "VEC2"
    },
    {
      "bufferView": 0,
      "byteOffset": 2771124,
      "componentType": 5125,
      "count": 330684,
      "type": "SCALAR"
    },
    {
      "bufferView": 2,
      "byteOffset": 4718304,
      "componentType": 5126,
      "count": 65532,
      "max": [
        0.09282299876213074,
        0.064751997590065,
        -0.0006949999951757491
      ],
      "min": [
        -0.24396200478076935,
        -0.08027700334787369,
        -0.5823609828948975
      ],
      "type": "VEC3"
    },
    {
      "bufferView": 2,
      "byteOffset": 5504688,
      "componentType": 5126,
      "count": 65532,
      "max": [
        0.9999977350234985,
        1.0,
        0.9999364018440247
      ],
      "min": [
        -1.0,
        -1.0,
        -0.9999998807907104
      ],
      "type": "VEC3"
    },
    {
      "bufferView": 3,
      "byteOffset": 3145536,
      "componentType": 5126,
      "count": 65532,
      "max": [
        1.0,
        1.0,
        0.9999991059303284,
        1.0
      ],
      "min": [
        -1.0,
        -1.0,
        -1.0,
        -1.0
      ],
      "type": "VEC4"
    },
    {
      "bufferView": 1,
      "byteOffset": 6291072,
      "componentType": 5126,
      "count": 65532,
      "max": [
        0.999567985534668,
        0.9995669722557068
      ],
      "min": [
        0.00043200000072829425,
        0.0004330277442932129
      ],
      "type": "VEC2"
    },
    {
      "bufferView": 1,
      "byteOffset": 6815328,
      "componentType": 5126,
      "count": 65532,
      "max": [
        0.999567985534668,
        0.9995669722557068
      ],
      "min": [
        0.00043200000072829425,
        0.0004330277442932129
      ],
      "type": "VEC2"
    },
    {
      "bufferView": 1,
      "byteOffset": 7339584,
      "componentType": 5126,
      "count": 65532,
      "max": [
        0.999567985534668,
        0.9995669722557068
      ],
      "min": [
        0.00043200000072829425,
        0.0004330277442932129
      ],
      "type": "VEC2"
    },
    {
      "bufferView": 1,
      "byteOffset": 7863840,
      "componentType": 5126,
      "count": 65532,
      "max": [
        0.999567985534668,
        0.9995669722557068
      ],
      "min": [
        0.00043200000072829425,
        0.0004330277442932129
      ],
      "type": "VEC2"
    },
    {
      "bufferView": 0,
      "byteOffset": 4093860,
      "componentType": 5125,
      "count": 326145,
      "type": "SCALAR"
    },
    {
      "bufferView": 2,
      "byteOffset": 6291072,
      "componentType": 5126,
      "count": 32193,
      "max": [
        0.10808899998664856,
        0.06479799747467041,
        -0.0034650000743567944
      ],
      "min": [
        -0.11505399644374847,
        -0.06435900181531906,
        -0.2494650036096573
      ],
      "type": "VEC3"
    },
    {
      "bufferView": 2,
      "byteOffset": 6677388,
      "componentType": 5126,
      "count": 32193,
      "max": [
        1.0,
        0.9999998807907104,
        0.9999994039535522
      ],
      "min": [
        -0.9999997615814209,
        -1.0,
        -0.999988317489624
      ],
      "type": "VEC3"
    },
    {
      "bufferView": 3,
      "byteOffset": 4194048,
      "componentType": 5126,
      "count": 32193,
      "max": [
        1.0,
        1.0,
        0.9999999403953552,
        1.0
      ],
      "min": [
        -1.0,
        -0.9999955892562866,
        -1.0,
        -1.0
      ],
      "type": "VEC4"
    },
    {
      "bufferView": 1,
      "byteOffset": 8388096,
      "componentType": 5126,
      "count": 32193,
      "max": [
        0.999567985534668,
        0.9995669722557068
      ],
      "min": [
        0.00043200000072829425,
        0.0004330277442932129
      ],
      "type": "VEC2"
    },
    {
      "bufferView": 1,
      "byteOffset": 8645640,
      "componentType": 5126,
      "count": 32193,
      "max": [
        0.999567985534668,
        0.9995669722557068
      ],
      "min": [
        0.00043200000072829425,
        0.0004330277442932129
      ],
      "type": "VEC2"
    },
    {
      "bufferView": 1,
      "byteOffset": 8903184,
      "componentType": 5126,
      "count": 32193,
      "max": [
        0.999567985534668,
        0.9995669722557068
      ],
      "min": [
        0.00043200000072829425,
        0.0004330277442932129
      ],
      "type": "VEC2"
    },
    {
      "bufferView": 1,
      "byteOffset": 9160728,
      "componentType": 5126,
      "count": 32193,
      "max": [
        0.999567985534668,
        0.9995669722557068
      ],
      "min": [
        0.00043200000072829425,
        0.0004330277442932129
      ],
      "type": "VEC2"
    },
    {
      "bufferView": 0,
      "byteOffset": 5398440,
      "componentType": 5125,
      "count": 150384,
      "type": "SCALAR"
    }
  ],
  "asset": {
    "extras": {
      "author": "ARTEL_3D (https://sketchfab.com/artel_3D)",
      "license": "CC-BY-4.0 (http://creativecommons.org/licenses/by/4.0/)",
      "source": "https://sketchfab.com/3d-models/blocky-stylized-zombie-60dd87b901b24e3dbbbe722d68201a9d",
      "title": "Blocky Stylized Zombie"
    },
    "generator": "Sketchfab-16.74.0",
    "version": "2.0"
  },
  "bufferViews": [
    {
      "buffer": 0,
      "byteLength": 5999976,
      "name": "floatBufferViews",
      "target": 34963
    },
    {
      "buffer": 0,
      "byteLength": 9418272,
      "byteOffset": 5999976,
      "byteStride": 8,
      "name": "floatBufferViews",
      "target": 34962
    },
    {
      "buffer": 0,
      "byteLength": 7063704,
      "byteOffset": 15418248,
      "byteStride": 12,
      "name": "floatBufferViews",
      "target": 34962
    },
    {
      "buffer": 0,
      "byteLength": 4709136,
      "byteOffset": 22481952,
      "byteStride": 16,
      "name": "floatBufferViews",
      "target": 34962
    }
  ],
  "buffers": [
    {
      "byteLength": 27191088,
      "uri": "scene.bin"
    }
  ],
  "extensionsRequired": [
    "KHR_materials_pbrSpecularGlossiness"
  ],
  "extensionsUsed": [
    "KHR_materials_pbrSpecularGlossiness"
  ],
  "images": [
    {
      "uri": "textures/Material.001_diffuse.png"
    },
    {
      "uri": "textures/Material.001_specularGlossiness.png"
    },
    {
      "uri": "textures/Material.001_normal.png"
    }
  ],
  "materials": [
    {
      "doubleSided": true,
      "extensions": {
        "KHR_materials_pbrSpecularGlossiness": {
          "diffuseFactor": [
            1.0,
            1.0,
            1.0,
            1.0
          ],
          "diffuseTexture": {
            "index": 0
          },
          "glossinessFactor": 1.0,
          "specularFactor": [
            1.0,
            1.0,
            1.0
          ],
          "specularGlossinessTexture": {
            "index": 1,
            "texCoord": 1
          }
        }
      },
      "name": "Material.001",
      "normalTexture": {
        "index": 2,
        "texCoord": 2
      }
    }
  ],
  "meshes": [
    {
      "name": "Object_0",
      "primitives": [
        {
          "attributes": {
            "NORMAL": 1,
            "POSITION": 0,
            "TANGENT": 2,
            "TEXCOORD_0": 3,
            "TEXCOORD_1": 4,
            "TEXCOORD_2": 5,
            "TEXCOORD_3": 6
          },
          "indices": 7,
          "material": 0,
          "mode": 4
        }
      ]
    },
    {
      "name": "Object_1",
      "primitives": [
        {
          "attributes": {
            "NORMAL": 9,
            "POSITION": 8,
            "TANGENT": 10,
            "TEXCOORD_0": 11,
            "TEXCOORD_1": 12,
            "TEXCOORD_2": 13,
            "TEXCOORD_3": 14
          },
          "indices": 15,
          "material": 0,
          "mode": 4
        }
      ]
    },
    {
      "name": "Object_2",
      "primitives": [
        {
          "attributes": {
            "NORMAL": 17,
            "POSITION": 16,
            "TANGENT": 18,
            "TEXCOORD_0": 19,
            "TEXCOORD_1": 20,
            "TEXCOORD_2": 21,
            "TEXCOORD_3": 22
          },
          "indices": 23,
          "material": 0,
          "mode": 4
        }
      ]
    },
    {
      "name": "Object_3",
      "primitives": [
        {
          "attributes": {
            "NORMAL": 25,
            "POSITION": 24,
            "TANGENT": 26,
            "TEXCOORD_0": 27,
            "TEXCOORD_1": 28,
            "TEXCOORD_2": 29,
            "TEXCOORD_3": 30
          },
          "indices": 31,
          "material": 0,
          "mode": 4
        }
      ]
    },
    {
      "name": "Object_4",
      "primitives": [
        {
          "attributes": {
            "NORMAL": 33,
            "POSITION": 32,
            "TANGENT": 34,
            "TEXCOORD_0": 35,
            "TEXCOORD_1": 36,
            "TEXCOORD_2": 37,
            "TEXCOORD_3": 38
          },
          "indices": 39,
          "material": 0,
          "mode": 4
        }
      ]
    }
  ],
  "nodes": [
    {
      "children": [
        1
      ],
      "matrix": [
        -1.2696282863616943,
        2.0417179700452955e-16,
        -3.596564086857339e-16,
        0.0,
        -3.5965640868573393e-16,
        -4.860859082513564e-16,
        1.2696282863616943,
        0.0,
        2.0417179700452948e-16,
        1.2696282863616943,
        4.860859082513564e-16,
        0.0,
        0.0,
        0.0,
        0.0,
        1.0
      ],
      "name": "Sketchfab_model"
    },
    {
      "children": [
        2
      ],
      "name": "root"
    },
    {
      "children": [
        3
      ],
      "matrix": [
        1.0,
        0.0,
        0.0,
        0.0,
        0.0,
        2.220446049250313e-16,
        1.0,
        0.0,
        0.0,
        -1.0,
        2.220446049250313e-16,
        0.0,
        0.0,
        0.0,
        0.0,
        1.0
      ],
      "name": "GLTF_SceneRootNode"
    },
    {
      "children": [
        4,
        5,
        6,
        7,
        8
      ],
      "matrix": [
        1.0,
        0.0,
        0.0,
        0.0,
        0.0,
        0.0,
        1.0,
        0.0,
        0.0,
        -1.0,
        0.0,
        0.0,
        0.0,
        0.0,
        0.0,
        1.0
      ],
      "name": "texture_pbr_v128_0"
    },
    {
      "mesh": 0,
      "name": "Object_4"
    },
    {
      "mesh": 1,
      "name": "Object_5"
    },
    {
      "mesh": 2,
      "name": "Object_6"
    },
    {
      "mesh": 3,
      "name": "Object_7"
    },
    {
      "mesh": 4,
      "name": "Object_8"
    }
  ],
  "samplers": [
    {
      "magFilter": 9729,
      "minFilter": 9987,
      "wrapS": 10497,
      "wrapT": 10497
    }
  ],
  "scene": 0,
  "scenes": [
    {
      "name": "Sketchfab_Scene",
      "nodes": [
        0
      ]
    }
  ],
  "textures": [
    {
      "sampler": 0,
      "source": 0
    },
    {
      "sampler": 0,
      "source": 1
    },
    {
      "sampler": 0,
      "source": 2
    }
  ]
}
